# xmcd CD database file
#
# Track frame offsets:
#	150
#	15360
#	29645
#	52455
#	69687
#	90680
#	111425
#	123792
#	145767
#
# Disc length: 2114 seconds
#
# Revision: 0
# Processed by: cddbd v1.5.1PL0 Copyright (c) Steve Scherf et al.
# Submitted via: CDex 1.51
#
DISCID=80084009
DTITLE=Chris Juergensen - Big Bad Sun
DYEAR=2005
DGENRE=Blues
TTITLE0=Sweet Melissa
TTITLE1=Come Out Baby
TTITLE2=Big Bad Sun
TTITLE3=House On The Hill
TTITLE4=Tell Me A Story
TTITLE5=Love Dog
TTITLE6=Revelation
TTITLE7=Some Sympathy
TTITLE8=Bug Lips
EXTD=YEAR: 2005
EXTT0=
EXTT1=
EXTT2=
EXTT3=
EXTT4=
EXTT5=
EXTT6=
EXTT7=
EXTT8=
PLAYORDER=
